<svg width="16" height="16" viewBox="0 0 16 16" fill="none" xmlns="http://www.w3.org/2000/svg">
<path d="M7.99546 3.11702C8.17219 3.11702 8.34168 3.04681 8.46664 2.92184C8.59161 2.79688 8.66182 2.62739 8.66182 2.45066C8.66182 2.27393 8.59161 2.10444 8.46664 1.97947C8.34168 1.85451 8.17219 1.7843 7.99546 1.7843C7.81873 1.7843 7.64924 1.85451 7.52427 1.97947C7.39931 2.10444 7.3291 2.27393 7.3291 2.45066C7.3291 2.62739 7.39931 2.79688 7.52427 2.92184C7.64924 3.04681 7.81873 3.11702 7.99546 3.11702Z" fill="white"/>
<path fill-rule="evenodd" clip-rule="evenodd" d="M7.91479 0.0151043L7.91124 0.0159927L7.90102 0.0177695L7.86415 0.0248774L7.72643 0.0524201C7.60826 0.0764089 7.4399 0.111948 7.23866 0.157704C6.83662 0.249217 6.29688 0.382933 5.7549 0.550411C5.21827 0.716112 4.6563 0.922238 4.22051 1.16346C4.00372 1.2834 3.79582 1.42423 3.63722 1.58993C3.47952 1.75385 3.33203 1.98352 3.33203 2.27183C3.33203 3.04703 3.54971 3.61476 3.77982 3.99548C3.8931 4.18294 4.00816 4.32288 4.09879 4.41883C4.10264 4.47007 4.11048 4.52693 4.12233 4.58942C4.1672 4.82309 4.27959 5.12073 4.53725 5.40993C4.41456 5.93158 4.41142 6.47422 4.52808 6.99726C4.64474 7.52029 4.87816 8.01017 5.2109 8.43024C5.54363 8.85032 5.96706 9.1897 6.44949 9.42301C6.93192 9.65632 7.46087 9.77751 7.99675 9.77751C8.53264 9.77751 9.06158 9.65632 9.54401 9.42301C10.0264 9.1897 10.4499 8.85032 10.7826 8.43024C11.1153 8.01017 11.3488 7.52029 11.4654 6.99726C11.5821 6.47422 11.5789 5.93158 11.4563 5.40993C11.7135 5.12073 11.8259 4.82353 11.8707 4.58942C11.8826 4.52723 11.8904 4.47037 11.8943 4.41883C12.0154 4.28948 12.1223 4.14755 12.2132 3.99548C12.4438 3.61476 12.661 3.04703 12.661 2.27183C12.661 1.98352 12.5135 1.75385 12.3558 1.58993C12.1972 1.42423 11.9893 1.2834 11.7726 1.16346C11.3368 0.922238 10.7748 0.716112 10.2377 0.550411C9.74825 0.401379 9.25348 0.270388 8.7544 0.157704C8.54654 0.11034 8.33802 0.065912 8.12891 0.0244332L8.09204 0.0177695L8.08182 0.0159927L8.07827 0.0151043L7.99653 0L7.91479 0.0151043ZM7.99653 5.56053C8.97696 5.56053 9.63532 5.43347 10.0756 5.26822C10.4483 5.12828 10.6655 4.96125 10.7908 4.82043C10.8361 4.76919 10.8728 4.71973 10.901 4.67205H5.0921C5.12024 4.72003 5.15681 4.76949 5.20183 4.82043C5.32799 4.96125 5.54478 5.12828 5.91705 5.26822C6.35774 5.43347 7.0161 5.56053 7.99653 5.56053ZM11.2715 3.78357H4.72161C4.65343 3.7068 4.5926 3.62381 4.53991 3.53569C4.38754 3.28381 4.22228 2.87644 4.22051 2.28116C4.2357 2.25286 4.25518 2.22709 4.27826 2.20475C4.35022 2.12968 4.47195 2.0395 4.65097 1.94088C5.00636 1.74408 5.49947 1.55927 6.01745 1.39891C6.48538 1.25677 6.95837 1.13186 7.43546 1.02441C7.62195 0.981968 7.80899 0.941983 7.99653 0.904468L8.08893 0.922682C8.20177 0.945783 8.36347 0.980433 8.5576 1.02441C8.94675 1.11282 9.46251 1.24076 9.97561 1.39935C10.4936 1.55928 10.9867 1.74408 11.3421 1.94088C11.5211 2.0395 11.6428 2.12968 11.7152 2.20475C11.7552 2.24696 11.7686 2.27183 11.7726 2.28116C11.7708 2.87644 11.6055 3.28381 11.4527 3.53569C11.4002 3.62379 11.3395 3.70678 11.2715 3.78357ZM5.3311 6.22688C5.3311 6.14692 5.33451 6.06784 5.34132 5.98966C5.93571 6.2682 6.78687 6.449 7.99653 6.449C9.03827 6.449 9.81302 6.31573 10.3874 6.10027C10.4807 6.06562 10.5688 6.0286 10.6517 5.98921C10.6585 6.0677 10.662 6.14692 10.662 6.22688C10.662 6.9338 10.3811 7.61176 9.88127 8.11162C9.38141 8.61149 8.70344 8.89231 7.99653 8.89231C7.28961 8.89231 6.61165 8.61149 6.11179 8.11162C5.61192 7.61176 5.3311 6.9338 5.3311 6.22688Z" fill="white"/>
<path d="M11.9939 12.446C12.2903 12.7424 12.8824 13.0382 12.8824 13.0382C12.8824 13.0382 12.5723 14.223 11.9939 14.223C11.4155 14.223 11.1055 13.0382 11.1055 13.0382C11.1055 13.0382 11.6976 12.7424 11.9939 12.446Z" fill="white"/>
<path fill-rule="evenodd" clip-rule="evenodd" d="M6.44145 11.1133C6.44145 10.8777 6.53506 10.6517 6.70168 10.4851C6.8683 10.3185 7.09429 10.2249 7.32992 10.2249H8.66264C8.89828 10.2249 9.12426 10.3185 9.29088 10.4851C9.45751 10.6517 9.55111 10.8777 9.55111 11.1133V11.7273C9.5511 11.8719 9.51576 12.0144 9.44817 12.1423C9.38059 12.2702 9.2828 12.3796 9.16329 12.4611L9.21349 12.7126L10.7381 10.8614C10.7895 10.799 10.857 10.7518 10.9332 10.7248C11.0095 10.6979 11.0916 10.6923 11.1708 10.7086C12.3098 10.945 13.4751 11.303 14.3671 11.7943C15.2298 12.2697 15.9926 12.9596 15.9926 13.9111V15.5557C15.9926 15.6735 15.9458 15.7865 15.8624 15.8698C15.7791 15.9531 15.6661 15.9999 15.5483 15.9999H0.444238C0.326419 15.9999 0.213425 15.9531 0.130114 15.8698C0.0468036 15.7865 0 15.6735 0 15.5557V13.9111C0 12.9649 0.777416 12.2795 1.64013 11.8081C2.53571 11.3181 3.70139 10.9574 4.82664 10.718C4.90621 10.7011 4.98888 10.7063 5.06565 10.7332C5.14241 10.7601 5.21033 10.8075 5.262 10.8703L6.78573 12.721L6.83371 12.4643C6.71289 12.3829 6.61392 12.2731 6.54552 12.1445C6.47711 12.0159 6.44138 11.8725 6.44145 11.7268V11.1133ZM8.22728 12.311L8.4845 13.598L7.99628 14.1906L7.52361 13.6166L7.76661 12.3048C7.78421 12.21 7.7705 12.1121 7.72755 12.0257C7.68459 11.9394 7.61473 11.8694 7.5285 11.8263L7.32992 11.7273V11.1133H8.66264V11.7273L8.46406 11.8268C8.37689 11.8703 8.30645 11.9413 8.26359 12.0288C8.22072 12.1163 8.20781 12.2154 8.22684 12.311M8.38854 15.1115L11.2512 11.6353C12.2552 11.8601 13.2179 12.1759 13.938 12.5727C14.7505 13.02 15.1041 13.4825 15.1041 13.9111V15.1115H8.38854ZM4.74846 11.6451L7.60357 15.1115H0.888476V13.9111C0.888476 13.4962 1.24387 13.0373 2.06615 12.5873C2.79159 12.1906 3.75603 11.873 4.74935 11.6451" fill="white"/>
</svg>
