<svg width="18" height="18" viewBox="0 0 18 18" fill="none" xmlns="http://www.w3.org/2000/svg">
<path d="M5.69041 8.59998C6.66001 7.63038 7.62974 7.14558 8.59961 7.14558C9.56948 7.14558 10.5392 7.63038 11.5088 8.59998C12.6403 7.63038 13.4887 7.14558 14.054 7.14558C14.6199 7.14558 15.4684 7.63038 16.5996 8.59998C16.5996 4.18158 13.018 0.599976 8.59961 0.599976C4.18121 0.599976 0.599609 4.18158 0.599609 8.59998C1.73108 7.63038 2.57961 7.14558 3.14521 7.14558C3.71081 7.14558 4.55921 7.63038 5.69041 8.59998Z" stroke="white" stroke-width="1.2" stroke-linejoin="round"/>
<path d="M0.599609 8.59998L8.59961 16.6M8.59961 16.6L5.69041 8.59998M8.59961 16.6L11.5088 8.59998M8.59961 16.6L16.5996 8.59998" stroke="white" stroke-width="1.2" stroke-linecap="round" stroke-linejoin="round"/>
</svg>
