<svg width="24" height="24" viewBox="0 0 24 24" fill="none" xmlns="http://www.w3.org/2000/svg">
<path d="M3 3.75V8.25H3.75V20.25H20.25V8.25H21V3.75H3ZM4.5 5.25H19.5V6.75H4.5V5.25ZM5.25 8.25H18.75V18.75H5.25V8.25ZM9.60975 9.75C9.51126 9.75921 9.41555 9.78773 9.32808 9.83393C9.24061 9.88013 9.16309 9.9431 9.09996 10.0193C9.03683 10.0954 8.98931 10.1833 8.96013 10.2778C8.93095 10.3723 8.92067 10.4716 8.92987 10.5701C8.93908 10.6686 8.9676 10.7643 9.0138 10.8518C9.06 10.9393 9.12298 11.0168 9.19913 11.0799C9.35293 11.2074 9.55109 11.2686 9.75 11.25H14.25C14.4489 11.25 14.6397 11.171 14.7803 11.0303C14.921 10.8897 15 10.6989 15 10.5C15 10.3011 14.921 10.1103 14.7803 9.96967C14.6397 9.82902 14.4489 9.75 14.25 9.75H9.75C9.72651 9.74889 9.70299 9.74889 9.6795 9.75C9.65601 9.74889 9.63324 9.74889 9.60975 9.75Z" fill="white"/>
</svg>
